# xmcd
#
# Track frame offsets:
#	150
#	15848
#	31376
#	46461
#	61511
#	77521
#	92415
#	111326
#	128398
#	147968
#	172149
#
# Disc length: 2503 seconds
#
# Revision: 0
# Processed by: cddbd v1.5.1PL2 Copyright (c) Steve Scherf et al.
# Submitted via: EasyCDDAExtractor 9.1.0.1
#
DISCID=7c09c50b
DTITLE=Various Artist - Country Mix
DYEAR=1900
DGENRE=
TTITLE0=Brad Paisley - Mud On The Tires
TTITLE1=Blake Shelton - Some Beach
TTITLE2=Big and Rich - Save A Horse Ride A Cowboy
TTITLE3=Craig Morgan - Thats What I Love About Sunday
TTITLE4=Kenny Chesney - Keg In The Closet
TTITLE5=Brooks and Dunn - Boot Scootin Boogie
TTITLE6=Keith Urban - Making Memories Of Us
TTITLE7=Rascal Flatts - Bless The Broken Road
TTITLE8=Brad Paisley - Whiskey Lullaby
TTITLE9=Keith Urban - Nobody Drinks Alone
TTITLE10=Lonestar - Mr Mom
EXTD=
EXTT0=
EXTT1=
EXTT2=
EXTT3=
EXTT4=
EXTT5=
EXTT6=
EXTT7=
EXTT8=
EXTT9=
EXTT10=
PLAYORDER=
